<?xml version="1.0" encoding="iso-8859-1"?>
<!-- Uploaded to: SVG Repo, www.svgrepo.com, Generator: SVG Repo Mixer Tools -->
<!DOCTYPE svg PUBLIC "-//W3C//DTD SVG 1.1//EN" "http://www.w3.org/Graphics/SVG/1.1/DTD/svg11.dtd">
<svg fill="#000000" version="1.1" id="Capa_1" xmlns="http://www.w3.org/2000/svg" xmlns:xlink="http://www.w3.org/1999/xlink" 
	 width="800px" height="800px" viewBox="0 0 384.176 384.176"
	 xml:space="preserve">
<g>
	<path d="M307.015,82.615c-2.271-2.271-5.35-3.546-8.561-3.546H30.685c-3.211,0-6.291,1.275-8.561,3.546L3.546,101.192
		C1.275,103.463,0,106.542,0,109.754v110.739c0,3.212,1.276,6.291,3.546,8.562l18.578,18.577c2.271,2.271,5.35,3.546,8.561,3.546
		h89.658c3.75,0,7.287-1.736,9.58-4.704l22.858-29.577h23.577l22.858,29.577c2.293,2.968,5.831,4.704,9.58,4.704h89.658
		c3.211,0,6.291-1.275,8.561-3.546l18.578-18.577c2.271-2.271,3.546-5.35,3.546-8.562V109.754c0-3.211-1.275-6.291-3.546-8.562
		L307.015,82.615z M304.925,215.479l-11.486,11.484H214.74l-22.857-29.577c-2.293-2.967-5.831-4.704-9.58-4.704h-35.467
		c-3.75,0-7.287,1.737-9.58,4.704l-22.858,29.577H35.7l-11.486-11.484v-100.71L35.7,103.284h257.739l11.486,11.485V215.479z
		 M212.566,258.687h-95.995c-6.687,0-12.107,5.42-12.107,12.107v43.268c0,6.688,5.42,12.107,12.107,12.107h95.995
		c6.688,0,12.107-5.42,12.107-12.107v-8.893h109.959c3.652,0,7.108-1.648,9.407-4.484l37.436-46.205
		c1.747-2.156,2.7-4.848,2.7-7.623V70.114c0-6.687-5.42-12.107-12.106-12.107c-6.688,0-12.107,5.42-12.107,12.107v172.454
		l-31.102,38.387H224.674v-10.16C224.674,264.106,219.254,258.687,212.566,258.687z M200.46,301.954h-71.78v-19.053h71.78V301.954z"
		/>
</g>
</svg>